<svg width="50" height="50" viewBox="0 0 50 50" fill="none" xmlns="http://www.w3.org/2000/svg">
<path d="M25 0C14.6445 0 6.25 8.39531 6.25 18.75C6.25 26.4398 10.8813 33.0445 17.5047 35.9375H32.4953C39.1188 33.0445 43.75 26.4398 43.75 18.75C43.75 8.39531 35.3555 0 25 0ZM32.0312 20.3125C31.5992 20.3125 31.25 19.9633 31.25 19.5312C31.25 18.6688 30.55 17.9688 29.6875 17.9688C28.825 17.9688 28.125 18.6688 28.125 19.5312V34.375H26.5625V19.5312C26.5625 18.6688 25.8625 17.9688 25 17.9688C24.1375 17.9688 23.4375 18.6688 23.4375 19.5312V34.375H21.875V19.5312C21.875 18.6688 21.175 17.9688 20.3125 17.9688C19.45 17.9688 18.75 18.6688 18.75 19.5312C18.75 19.9633 18.4008 20.3125 17.9688 20.3125C17.5367 20.3125 17.1875 19.9633 17.1875 19.5312C17.1875 17.8055 18.5867 16.4062 20.3125 16.4062C21.2508 16.4062 22.0836 16.8289 22.6562 17.4844C23.2289 16.8289 24.0617 16.4062 25 16.4062C25.9383 16.4062 26.7711 16.8289 27.3438 17.4844C27.9164 16.8289 28.7492 16.4062 29.6875 16.4062C31.4133 16.4062 32.8125 17.8055 32.8125 19.5312C32.8125 19.9633 32.4633 20.3125 32.0312 20.3125ZM35.1562 10.1562C34.5766 10.7359 33.8383 9.91172 33.8383 9.91172C31.5766 7.64922 28.4516 6.25 25 6.25C24.568 6.25 24.2188 5.90078 24.2188 5.46875C24.2188 5.03672 24.568 4.6875 25 4.6875C28.8836 4.6875 32.3992 6.26172 34.9445 8.80547C34.9445 8.80547 35.7359 9.57656 35.1562 10.1562Z" fill="#231F20"/>
<path d="M20.3125 50H29.6875C31.4148 50 32.8125 48.6023 32.8125 46.875H17.1875C17.1875 48.6023 18.5852 50 20.3125 50Z" fill="#231F20"/>
<path d="M17.1875 37.5031V40.625H32.8125V37.5031V37.5H17.1875V37.5031Z" fill="#231F20"/>
<path d="M32.8125 42.1875H17.1875V45.3125H32.8125V42.1875Z" fill="#231F20"/>
</svg>
