<svg width="50" height="50" viewBox="0 0 50 50" fill="none" xmlns="http://www.w3.org/2000/svg">
<path d="M32.1484 34.375H28.125V19.5312C28.125 18.6688 28.825 17.9688 29.6875 17.9688C30.55 17.9688 31.25 18.6688 31.25 19.5312C31.25 19.9633 31.5992 20.3125 32.0312 20.3125C32.4633 20.3125 32.8125 19.9633 32.8125 19.5312C32.8125 17.8055 31.4133 16.4062 29.6875 16.4062C28.7492 16.4062 27.9164 16.8289 27.3438 17.4852C26.7711 16.8289 25.9383 16.4062 25 16.4062C24.0617 16.4062 23.2289 16.8289 22.6562 17.4852C22.0836 16.8289 21.2508 16.4062 20.3125 16.4062C18.5867 16.4062 17.1875 17.8055 17.1875 19.5312C17.1875 19.9633 17.5367 20.3125 17.9688 20.3125C18.4008 20.3125 18.75 19.9633 18.75 19.5312C18.75 18.6688 19.45 17.9688 20.3125 17.9688C21.175 17.9688 21.875 18.6688 21.875 19.5312V34.375H17.8516C11.9305 31.6602 7.8125 25.6898 7.8125 18.75C7.8125 9.25781 15.5078 1.5625 25 1.5625C34.4922 1.5625 42.1875 9.25781 42.1875 18.75C42.1875 25.6898 38.0695 31.6617 32.1484 34.375Z" fill="#F9EBB2"/>
<path d="M25 0C14.6445 0 6.25 8.39531 6.25 18.75C6.25 26.3156 10.7367 32.8172 17.1875 35.782V46.875C17.1875 48.6023 18.5852 50 20.3125 50H29.6875C31.4148 50 32.8125 48.6023 32.8125 46.875V35.782C39.2633 32.8172 43.75 26.3156 43.75 18.75C43.75 8.39531 35.3555 0 25 0ZM31.25 46.875C31.25 47.7383 30.55 48.4375 29.6875 48.4375H20.3125C19.45 48.4375 18.75 47.7383 18.75 46.875V45.3125H31.25V46.875ZM31.25 43.75H18.75V40.625H31.25V43.75ZM31.25 39.0625H18.75V35.9375H31.25V39.0625ZM23.4375 34.375V19.5312C23.4375 18.6688 24.1375 17.9688 25 17.9688C25.8625 17.9688 26.5625 18.6688 26.5625 19.5312V34.375H23.4375ZM32.1484 34.375H28.125V19.5312C28.125 18.6688 28.825 17.9688 29.6875 17.9688C30.55 17.9688 31.25 18.6688 31.25 19.5312C31.25 19.9633 31.5992 20.3125 32.0312 20.3125C32.4633 20.3125 32.8125 19.9633 32.8125 19.5312C32.8125 17.8055 31.4133 16.4062 29.6875 16.4062C28.7492 16.4062 27.9164 16.8289 27.3438 17.4852C26.7711 16.8289 25.9383 16.4062 25 16.4062C24.0617 16.4062 23.2289 16.8289 22.6562 17.4852C22.0836 16.8289 21.2508 16.4062 20.3125 16.4062C18.5867 16.4062 17.1875 17.8055 17.1875 19.5312C17.1875 19.9633 17.5367 20.3125 17.9688 20.3125C18.4008 20.3125 18.75 19.9633 18.75 19.5312C18.75 18.6688 19.45 17.9688 20.3125 17.9688C21.175 17.9688 21.875 18.6688 21.875 19.5312V34.375H17.8516C11.9305 31.6602 7.8125 25.6898 7.8125 18.75C7.8125 9.25781 15.5078 1.5625 25 1.5625C34.4922 1.5625 42.1875 9.25781 42.1875 18.75C42.1875 25.6898 38.0695 31.6617 32.1484 34.375Z" fill="#394240"/>
<path d="M25 4.6875C24.568 4.6875 24.2188 5.03672 24.2188 5.46875C24.2188 5.90078 24.568 6.25 25 6.25C28.4516 6.25 31.5766 7.64922 33.8383 9.9125C33.8383 9.9125 34.5758 10.7367 35.1562 10.1562C35.7367 9.57578 34.9445 8.80547 34.9445 8.80547C32.3992 6.2625 28.8836 4.6875 25 4.6875Z" fill="#394240"/>
<path d="M18.75 46.875C18.75 47.7383 19.45 48.4375 20.3125 48.4375H29.6875C30.55 48.4375 31.25 47.7383 31.25 46.875V45.3125H18.75V46.875Z" fill="#B4CCB9"/>
<path d="M31.25 40.625H18.75V43.75H31.25V40.625Z" fill="#B4CCB9"/>
<path d="M31.25 35.9375H18.75V39.0625H31.25V35.9375Z" fill="#B4CCB9"/>
<path d="M26.5625 34.375H23.4375V19.5312C23.4375 18.6688 24.1375 17.9688 25 17.9688C25.8625 17.9688 26.5625 18.6688 26.5625 19.5312V34.375Z" fill="#F9EBB2"/>
</svg>
