<svg width="69" height="53" viewBox="0 0 69 53" fill="none" xmlns="http://www.w3.org/2000/svg">
<g filter="url(#filter0_d_650_411)">
<g clip-path="url(#clip0_650_411)">
<rect x="4" y="3" width="61" height="45" rx="5" fill="#F4F4F4"/>
<g clip-path="url(#clip1_650_411)">
<path d="M20.2519 25.6068C20.2519 24.4632 19.1764 23.7806 17.2742 23.7806C16.5001 23.7806 15.9756 23.8358 15.7012 23.8913V27.5618C16.0259 27.6171 16.4254 27.635 16.977 27.635C19.0007 27.636 20.2519 26.879 20.2519 25.6068Z" fill="black"/>
<path d="M58.0921 19.0963H56.6274V13.8826C56.6274 13.8501 56.6204 13.8173 56.6145 13.7844C56.6122 13.5773 56.5229 13.374 56.3308 13.2129L44.5697 3.3018C44.5662 3.29926 44.5627 3.29837 44.5603 3.29559C44.4902 3.23783 44.4085 3.18979 44.3221 3.1482C44.2965 3.13554 44.2707 3.12492 44.2439 3.11397C44.169 3.08382 44.0896 3.05882 44.0079 3.04077C43.9857 3.03619 43.9658 3.02949 43.9436 3.02525C43.8548 3.00972 43.7626 3 43.6691 3H14.7647C13.4448 3 12.3725 3.79191 12.3725 4.76478V19.0959H10.9081C9.01999 19.0959 7.48901 20.2248 7.48901 21.6182V34.7346C7.48901 36.127 9.01999 37.2566 10.9081 37.2566H12.3727V46.2352C12.3727 47.208 13.4449 48 14.7648 48H54.2353C55.554 48 56.6275 47.2081 56.6275 46.2352V37.2566H58.0922C59.9798 37.2566 61.5111 36.127 61.5111 34.7346V21.6186C61.511 20.2253 59.9797 19.0963 58.0921 19.0963ZM14.7647 4.76511H42.473V13.7939C42.473 14.2814 43.0092 14.6763 43.6691 14.6763H54.2352V19.0969H14.7647V4.76511ZM29.9531 30.4395V34.1838H26.4534V21.7519H30.9036L34.4045 26.3074C35.404 27.6171 36.405 29.1655 37.1538 30.5683H37.2286C36.9786 28.9259 36.9037 27.2478 36.9037 25.3853V21.7519H40.4049V34.1838H36.405L32.804 29.3879C31.8018 28.06 30.703 26.4555 29.876 24.9984L29.8024 25.0165C29.9046 26.6585 29.9531 28.4107 29.9531 30.4395ZM11.9247 34.1838V21.9183C13.1001 21.7709 14.7505 21.6602 17.0751 21.6602C19.4246 21.6602 21.1011 21.992 22.2259 22.6563C23.2999 23.2831 24.0261 24.3158 24.0261 25.5336C24.0261 26.7507 23.4769 27.7843 22.4757 28.4848C21.1758 29.3887 19.2504 29.7946 17.0003 29.7946C16.4995 29.7946 16.0486 29.7757 15.7005 29.7394V34.1847H11.9247V34.1838ZM54.2353 45.7575H14.7647V37.2566H54.2352V45.7575H54.2353ZM57.7849 33.6117C56.6099 33.9064 54.3835 34.3131 52.1584 34.3131C49.0841 34.3131 46.8566 33.741 45.3078 32.6346C43.7579 31.5643 42.9064 29.941 42.9321 28.1151C42.9567 23.9837 47.0331 21.6231 52.5579 21.6231C54.7335 21.6231 56.4101 21.9359 57.2336 22.2314L56.4347 24.4817C55.5078 24.1862 54.3579 23.9465 52.5078 23.9465C49.3342 23.9465 46.9326 25.2746 46.9326 27.9678C46.9326 30.5316 49.1087 32.0439 52.2343 32.0439C53.1087 32.0439 53.8089 31.9703 54.1097 31.8595V29.2586H51.5079V27.0634H57.785V33.6117H57.7849Z" fill="black"/>
</g>
</g>
</g>
<defs>
<filter id="filter0_d_650_411" x="0" y="0" width="69" height="53" filterUnits="userSpaceOnUse" color-interpolation-filters="sRGB">
<feFlood flood-opacity="0" result="BackgroundImageFix"/>
<feColorMatrix in="SourceAlpha" type="matrix" values="0 0 0 0 0 0 0 0 0 0 0 0 0 0 0 0 0 0 127 0" result="hardAlpha"/>
<feOffset dy="1"/>
<feGaussianBlur stdDeviation="2"/>
<feComposite in2="hardAlpha" operator="out"/>
<feColorMatrix type="matrix" values="0 0 0 0 0 0 0 0 0 0 0 0 0 0 0 0 0 0 0.25 0"/>
<feBlend mode="normal" in2="BackgroundImageFix" result="effect1_dropShadow_650_411"/>
<feBlend mode="normal" in="SourceGraphic" in2="effect1_dropShadow_650_411" result="shape"/>
</filter>
<clipPath id="clip0_650_411">
<rect x="4" y="3" width="61" height="45" rx="5" fill="white"/>
</clipPath>
<clipPath id="clip1_650_411">
<rect width="61" height="45" fill="white" transform="translate(4 3)"/>
</clipPath>
</defs>
</svg>
