<svg width="100" height="100" viewBox="0 0 100 100" fill="none" xmlns="http://www.w3.org/2000/svg">
<path d="M55.5441 98.4599H44.4559C39.3526 98.4599 35.2156 94.323 35.2156 89.2197V72.5873H64.7844V89.2197C64.7844 94.323 60.6475 98.4599 55.5441 98.4599Z" fill="#62C9CC"/>
<path d="M40.9651 89.2197V72.5873H35.2156V89.2197C35.2156 94.323 39.3526 98.4599 44.4559 98.4599H50.2053C45.1022 98.4599 40.9651 94.323 40.9651 89.2197Z" fill="#50A9A9"/>
<path d="M50 20.0205C36.6182 20.0205 25.7701 30.8686 25.7701 44.2506C25.7701 54.1225 31.6744 62.6145 40.1437 66.3906V73.4088H59.8562V66.3906C68.3256 62.6145 74.2299 54.1225 74.2299 44.2506C74.2299 30.8686 63.382 20.0205 50 20.0205Z" fill="#F7D04A"/>
<path d="M31.5195 44.2506C31.5195 31.8416 40.848 21.6131 52.8748 20.191C51.9318 20.0795 50.973 20.0205 50 20.0205C36.6182 20.0205 25.7701 30.8686 25.7701 44.2506C25.7701 54.1225 31.6744 62.6145 40.1437 66.3906V73.4088H45.8932V66.3906C37.4238 62.6145 31.5195 54.1225 31.5195 44.2506Z" fill="#F3B41B"/>
<path d="M56.9814 36.4477C60.1567 36.4477 62.7309 33.8736 62.7309 30.6983C62.7309 27.523 60.1567 24.9489 56.9814 24.9489C53.8061 24.9489 51.232 27.523 51.232 30.6983C51.232 33.8736 53.8061 36.4477 56.9814 36.4477Z" fill="#FEE7BE"/>
<path d="M50 18.4805C44.6441 18.4805 39.5086 20.1084 35.1484 23.1881C34.4537 23.6789 34.2885 24.6398 34.7791 25.3346C35.2701 26.0293 36.2309 26.1945 36.9256 25.7039C40.7631 22.9934 45.2842 21.5605 50.0002 21.5605C62.5115 21.5605 72.69 31.7393 72.69 44.2504C72.69 53.1996 67.4064 61.3381 59.2293 64.9838C58.674 65.2314 58.3164 65.7824 58.3164 66.3904V71.0471H56.4805V50.1744H59.2342C61.1633 50.1744 62.8566 49.0105 63.5477 47.2096C64.2389 45.4086 63.7588 43.4107 62.3248 42.1203L61.1111 41.0279C59.7357 39.7898 57.831 39.4887 56.1406 40.2414C54.4502 40.9943 53.4002 42.6115 53.4002 44.4619V47.0943H46.5998V44.4619C46.5998 42.6113 45.5496 40.9943 43.8594 40.2414C42.1689 39.4885 40.2644 39.7898 38.8889 41.0279L37.6754 42.1203C36.2416 43.4109 35.7615 45.4086 36.4525 47.2096C37.1435 49.0105 38.8369 50.1744 40.766 50.1744H43.5197V71.0473H41.6836V66.3906C41.6836 65.7826 41.326 65.2314 40.7707 64.984C32.5935 61.3383 27.31 53.1998 27.31 44.2506C27.31 39.0117 29.0437 34.0916 32.3246 30.0221C32.8582 29.3598 32.7541 28.3902 32.0922 27.8566C31.4303 27.3232 30.4605 27.4271 29.9268 28.0891C26.2533 32.6463 24.2301 38.3859 24.2301 44.2506C24.2301 54.0775 29.8387 63.043 38.6037 67.3684V71.0473H35.2156C34.365 71.0473 33.6756 71.7367 33.6756 72.5873V89.2197C33.6756 95.1641 38.5115 100 44.4559 100H55.5441C61.4885 100 66.3244 95.1641 66.3244 89.2197V84.9076C66.3244 84.057 65.635 83.3676 64.7844 83.3676C63.9338 83.3676 63.2443 84.057 63.2443 84.9076V87.6797H36.7557V82.3408H59.035C59.8855 82.3408 60.575 81.6514 60.575 80.8008C60.575 79.9502 59.8855 79.2607 59.035 79.2607H36.7557V74.1273H63.2443V76.6941C63.2443 77.5447 63.9338 78.2342 64.7844 78.2342C65.635 78.2342 66.3244 77.5447 66.3244 76.6941V72.5873C66.3244 71.7367 65.635 71.0473 64.7844 71.0473H61.3963V67.3684C70.1613 63.0428 75.7699 54.0771 75.7699 44.2506C75.7701 30.0408 64.2096 18.4805 50 18.4805ZM56.4803 44.4617C56.4803 43.5338 57.1795 43.1504 57.3937 43.0549C57.6082 42.9596 58.3609 42.6963 59.0504 43.317L60.2641 44.4094C60.9939 45.0664 60.7605 45.8738 60.6717 46.1059C60.5828 46.3377 60.216 47.0941 59.234 47.0941H56.4803V44.4617ZM55.5441 96.9199H44.4559C40.7371 96.9199 37.6262 94.2703 36.9107 90.7598H63.0896C62.3738 94.2703 59.2629 96.9199 55.5441 96.9199ZM40.7658 47.0943C39.3771 47.0943 38.6977 45.3436 39.7355 44.4096L40.949 43.3172C41.9301 42.4342 43.5195 43.1543 43.5195 44.4619V47.0943H40.7658ZM46.5998 50.1744H53.4002V71.0473H46.5998V50.1744Z" fill="black"/>
<path d="M50 11.7043C50.8506 11.7043 51.54 11.0148 51.54 10.1643V1.54004C51.54 0.689453 50.8506 0 50 0C49.1494 0 48.46 0.689453 48.46 1.54004V10.1643C48.46 11.0148 49.1494 11.7043 50 11.7043Z" fill="black"/>
<path d="M31.4178 15.5561C31.8703 16.3401 32.9348 16.5631 33.6654 16.0258C34.2893 15.567 34.4721 14.6859 34.0854 14.016L29.7732 6.54728C29.3481 5.81075 28.4061 5.55821 27.6695 5.98361C26.933 6.4088 26.6807 7.35079 27.1059 8.08732L31.4178 15.5561Z" fill="black"/>
<path d="M20.8949 26.0791L13.4262 21.767C12.6894 21.3416 11.7474 21.5941 11.3224 22.3307C10.8973 23.0672 11.1496 24.0092 11.8861 24.4344L19.3549 28.7465C20.1404 29.2002 21.173 28.8582 21.5361 28.0295C21.8471 27.3203 21.5648 26.4656 20.8949 26.0791Z" fill="black"/>
<path d="M17.0432 44.6611C17.0432 43.8105 16.3537 43.1211 15.5031 43.1211H6.87891C6.02832 43.1211 5.33887 43.8105 5.33887 44.6611C5.33887 45.5117 6.02832 46.2012 6.87891 46.2012H15.5031C16.3535 46.2012 17.0432 45.5117 17.0432 44.6611Z" fill="black"/>
<path d="M19.3549 60.576L11.8861 64.8881C11.216 65.2748 10.934 66.1293 11.2449 66.8387C11.6082 67.6674 12.6406 68.0096 13.4262 67.5557L20.8949 63.2436C21.6314 62.8184 21.8838 61.8764 21.4586 61.1399C21.0332 60.4033 20.0914 60.1508 19.3549 60.576Z" fill="black"/>
<path d="M88.1139 64.8881L80.6451 60.576C79.9084 60.1506 78.9666 60.4031 78.5414 61.1396C78.1162 61.8761 78.3686 62.8181 79.1051 63.2433L86.5738 67.5554C87.3594 68.0092 88.392 67.6672 88.7551 66.8385C89.0662 66.1293 88.784 65.2748 88.1139 64.8881Z" fill="black"/>
<path d="M93.1211 43.1211H84.4969C83.6463 43.1211 82.9568 43.8105 82.9568 44.6611C82.9568 45.5117 83.6463 46.2012 84.4969 46.2012H93.1211C93.9717 46.2012 94.6611 45.5117 94.6611 44.6611C94.6611 43.8107 93.9717 43.1211 93.1211 43.1211Z" fill="black"/>
<path d="M79.8766 28.9529C80.1377 28.9529 80.4027 28.8863 80.6451 28.7463L88.1139 24.4342C88.8504 24.009 89.1027 23.067 88.6775 22.3305C88.2523 21.5939 87.3104 21.3416 86.5738 21.7668L79.1051 26.0789C78.3686 26.5041 78.1162 27.4461 78.5414 28.1826C78.8268 28.6767 79.3443 28.9529 79.8766 28.9529Z" fill="black"/>
<path d="M66.4785 16.1197C67.2061 16.5399 68.1629 16.2824 68.5822 15.5561L72.8944 8.08732C73.3195 7.35079 73.0672 6.4088 72.3307 5.98361C71.5942 5.55821 70.6522 5.81075 70.227 6.54728L65.9149 14.016C65.4895 14.7526 65.7418 15.6945 66.4785 16.1197Z" fill="black"/>
</svg>
